<svg width="197" height="54" viewBox="0 0 197 54" fill="none"
    xmlns="http://www.w3.org/2000/svg">
    <path fill-rule="evenodd" clip-rule="evenodd" d="M45.5011 16.2916V9.60839C45.4956 9.33828 45.3859 9.08075 45.1949 8.88971C45.0038 8.69868 44.7463 8.58894 44.4762 8.58348H37.9424C37.806 8.58633 37.6705 8.56192 37.5436 8.51168C37.4168 8.46145 37.3013 8.38641 37.2038 8.29095C37.1064 8.1955 37.029 8.08155 36.9762 7.95579C36.9233 7.83003 36.8961 7.69499 36.8961 7.55858V1.04615C36.8961 0.909742 36.9233 0.7747 36.9762 0.64894C37.029 0.52318 37.1064 0.409233 37.2038 0.313777C37.3013 0.218321 37.4168 0.143277 37.5436 0.0930449C37.6705 0.0428124 37.806 0.0184016 37.9424 0.0212435H49.7288C49.8591 0.0160849 49.989 0.0381003 50.1104 0.085889C50.2317 0.133678 50.3417 0.206193 50.4335 0.298822L53.8071 3.52301C54.0063 3.72142 54.1211 3.98922 54.1274 4.27034V24.9179C54.1274 25.1898 54.0194 25.4504 53.8272 25.6427C53.635 25.8349 53.3743 25.9428 53.1025 25.9428H29.188C28.9162 25.9428 28.6555 25.8349 28.4633 25.6427C28.2711 25.4504 28.1631 25.1898 28.1631 24.9179V18.3414C28.1631 18.0696 28.2711 17.8089 28.4633 17.6167C28.6555 17.4245 28.9162 17.3165 29.188 17.3165H44.4762C44.7463 17.3111 45.0038 17.2014 45.1949 17.0103C45.3859 16.8193 45.4956 16.5617 45.5011 16.2916ZM29.0815 0.341553H33.5869C34.1529 0.341553 34.6118 0.800419 34.6118 1.36646V5.86964C34.6118 6.43568 34.1529 6.89455 33.5869 6.89455H29.0815C28.5155 6.89455 28.0566 6.43568 28.0566 5.86964V1.36646C28.0566 0.800419 28.5155 0.341553 29.0815 0.341553ZM29.0815 8.96783H33.5869C34.1529 8.96783 34.6118 9.4267 34.6118 9.99274V14.4959C34.6118 15.062 34.1529 15.5208 33.5869 15.5208H29.0815C28.5155 15.5208 28.0566 15.062 28.0566 14.4959V9.99274C28.0566 9.4267 28.5155 8.96783 29.0815 8.96783ZM24.9394 47.4018H20.4341C19.868 47.4018 19.4092 47.8607 19.4092 48.4267V52.9299C19.4092 53.4959 19.868 53.9548 20.4341 53.9548H24.9394C25.5054 53.9548 25.9643 53.4959 25.9643 52.9299V48.4267C25.9643 47.8607 25.5054 47.4018 24.9394 47.4018ZM20.4341 39.0745H24.9394C25.5054 39.0745 25.9643 39.5333 25.9643 40.0994V44.6026C25.9643 45.1686 25.5054 45.6275 24.9394 45.6275H20.4341C19.868 45.6275 19.4092 45.1686 19.4092 44.6026V40.0994C19.4092 39.5333 19.868 39.0745 20.4341 39.0745ZM8.6263 44.3912V37.7293C8.6263 37.4574 8.73428 37.1967 8.92649 37.0045C9.11869 36.8123 9.37938 36.7043 9.6512 36.7043H24.9394C25.2095 36.6989 25.467 36.5892 25.6581 36.3981C25.8491 36.2071 25.9588 35.9496 25.9643 35.6794V29.0816C25.9588 28.8115 25.8491 28.554 25.6581 28.3629C25.467 28.1719 25.2095 28.0622 24.9394 28.0567H1.02491C0.754795 28.0622 0.497265 28.1719 0.306229 28.3629C0.115192 28.554 0.00545846 28.8115 0 29.0816V49.7292C0.00627115 50.0103 0.12104 50.2781 0.320283 50.4765L3.69393 53.7221C3.88591 53.8993 4.13726 53.9984 4.39856 53.9996H16.2063C16.4764 53.9942 16.734 53.8845 16.925 53.6934C17.1161 53.5024 17.2258 53.2449 17.2312 52.9747V46.441C17.2258 46.1709 17.1161 45.9133 16.925 45.7223C16.734 45.5312 16.4764 45.4215 16.2063 45.4161H9.6512C9.37938 45.4161 9.11869 45.3081 8.92649 45.1159C8.73428 44.9237 8.6263 44.663 8.6263 44.3912Z" fill="#4E9C48"/>
    <path fill-rule="evenodd" clip-rule="evenodd" d="M16.3134 8.6263H9.65147C9.37965 8.6263 9.11896 8.73428 8.92675 8.92649C8.73454 9.11869 8.62656 9.37938 8.62656 9.6512V16.2063C8.62097 16.4801 8.50828 16.7408 8.31267 16.9324C8.11706 17.124 7.85413 17.2313 7.5803 17.2312H1.06788C0.797764 17.2258 0.540234 17.1161 0.349197 16.925C0.15816 16.734 0.0484272 16.4764 0.0429688 16.2063V4.39856C0.0442603 4.13726 0.143279 3.88591 0.320548 3.69393L3.54473 0.320283C3.75094 0.119704 4.02579 0.00518209 4.31341 0H24.9397C25.2115 0 25.4722 0.107981 25.6644 0.300188C25.8566 0.492395 25.9646 0.753085 25.9646 1.02491V24.9394C25.9646 25.2112 25.8566 25.4719 25.6644 25.6641C25.4722 25.8563 25.2115 25.9643 24.9397 25.9643H18.3632C18.0931 25.9588 17.8355 25.8491 17.6445 25.6581C17.4535 25.467 17.3437 25.2095 17.3383 24.9394V9.6512C17.3328 9.38109 17.2231 9.12356 17.032 8.93253C16.841 8.74149 16.5835 8.63176 16.3134 8.6263ZM37.836 45.3735H44.5193C44.7911 45.3735 45.0518 45.2655 45.244 45.0733C45.4362 44.8811 45.5442 44.6204 45.5442 44.3486V37.8148C45.5412 37.6794 45.5658 37.5448 45.6162 37.4191C45.6667 37.2935 45.7421 37.1793 45.8379 37.0836C45.9336 36.9878 46.0478 36.9124 46.1734 36.862C46.2991 36.8115 46.4337 36.787 46.5691 36.7899H53.0815C53.2169 36.787 53.3515 36.8115 53.4771 36.862C53.6028 36.9124 53.7169 36.9878 53.8127 37.0836C53.9085 37.1793 53.9838 37.2935 54.0343 37.4191C54.0848 37.5448 54.1093 37.6794 54.1064 37.8148V49.6226C54.1091 49.7525 54.0859 49.8817 54.0383 50.0027C53.9906 50.1237 53.9194 50.2339 53.8288 50.3272L50.6046 53.6795C50.5093 53.782 50.3936 53.8635 50.2649 53.9187C50.1362 53.9739 49.9973 54.0015 49.8573 53.9998H29.2097C29.0743 54.0027 28.9397 53.9782 28.8141 53.9277C28.6884 53.8772 28.5743 53.8018 28.4785 53.7061C28.3827 53.6103 28.3074 53.4962 28.2569 53.3705C28.2064 53.2448 28.1819 53.1102 28.1848 52.9749V29.0817C28.1819 28.9463 28.2064 28.8118 28.2569 28.6861C28.3074 28.5604 28.3827 28.4463 28.4785 28.3505C28.5743 28.2548 28.6884 28.1794 28.8141 28.1289C28.9397 28.0784 29.0743 28.0539 29.2097 28.0568H35.7862C35.9216 28.0539 36.0562 28.0784 36.1818 28.1289C36.3075 28.1794 36.4216 28.2548 36.5174 28.3505C36.6132 28.4463 36.6885 28.5604 36.739 28.6861C36.7895 28.8118 36.814 28.9463 36.8111 29.0817V44.3486C36.8111 44.6204 36.9191 44.8811 37.1113 45.0733C37.3035 45.2655 37.5642 45.3735 37.836 45.3735ZM78.7686 20.4768H83.701C83.8112 20.4897 83.9229 20.4727 84.0243 20.4276C84.1257 20.3825 84.2132 20.311 84.2775 20.2206C84.4067 20.0566 84.4746 19.8527 84.4697 19.644V14.8398C84.4879 14.7353 84.4798 14.6279 84.4463 14.5273C84.4128 14.4267 84.3547 14.336 84.2775 14.2633C84.2176 14.1671 84.1316 14.09 84.0295 14.0409C83.9274 13.9917 83.8135 13.9726 83.701 13.9857H65.274C65.0492 13.9911 64.8351 14.0828 64.6761 14.2419C64.5171 14.4009 64.4253 14.615 64.4199 14.8398V19.644C64.4255 19.8668 64.5179 20.0786 64.6775 20.2342C64.8371 20.3898 65.0511 20.4768 65.274 20.4768H70.2704C70.3798 20.4718 70.4889 20.4923 70.589 20.5368C70.689 20.5812 70.7774 20.6484 70.8469 20.733C70.9733 20.9066 71.0407 21.1162 71.0391 21.3309V38.9037C71.0391 39.1303 71.1291 39.3475 71.2893 39.5077C71.4494 39.6679 71.6667 39.7578 71.8932 39.7578H77.1458C77.2552 39.7629 77.3643 39.7423 77.4644 39.6978C77.5645 39.6534 77.6528 39.5862 77.7224 39.5016C77.8547 39.3311 77.9227 39.1194 77.9145 38.9037V21.3309C77.9199 21.1061 78.0117 20.8919 78.1707 20.7329C78.3297 20.5739 78.5438 20.4822 78.7686 20.4768ZM92.9672 39.7578H87.6505C87.5403 39.7707 87.4286 39.7537 87.3272 39.7086C87.2258 39.6636 87.1383 39.592 87.074 39.5016C86.995 39.4256 86.9361 39.3312 86.9025 39.2269C86.869 39.1226 86.8619 39.0115 86.8818 38.9037V14.9038C86.8768 14.6952 86.9448 14.4913 87.074 14.3273C87.1388 14.2361 87.2257 14.1628 87.3265 14.1142C87.4273 14.0657 87.5388 14.0435 87.6505 14.0497H92.9672C93.1888 14.0647 93.3974 14.1595 93.5545 14.3166C93.7115 14.4736 93.8063 14.6823 93.8213 14.9038V38.9037C93.8298 39.0166 93.8109 39.1299 93.7663 39.234C93.7217 39.3381 93.6527 39.4299 93.5651 39.5016C93.4959 39.5921 93.4045 39.6633 93.2998 39.7082C93.1951 39.7531 93.0805 39.7702 92.9672 39.7578ZM126.597 38.9037V14.9039C126.587 14.7795 126.551 14.6585 126.492 14.5484C126.434 14.4382 126.353 14.3412 126.256 14.2633C126.191 14.1721 126.104 14.0987 126.003 14.0502C125.902 14.0017 125.791 13.9795 125.679 13.9857H120.747C120.495 13.978 120.247 14.053 120.042 14.1992C119.811 14.3289 119.608 14.5031 119.444 14.7117L112.697 24.6405C112.65 24.7176 112.584 24.7816 112.506 24.8264C112.427 24.8712 112.339 24.8954 112.249 24.8967C112.148 24.9024 112.048 24.8817 111.958 24.8367C111.868 24.7918 111.792 24.7241 111.736 24.6405L104.989 14.7757C104.818 14.5741 104.616 14.4011 104.391 14.2633C104.186 14.117 103.938 14.042 103.686 14.0498H98.7539C98.5291 14.0552 98.315 14.1469 98.156 14.3059C97.997 14.4649 97.9052 14.679 97.8998 14.9039V38.9037C97.9052 39.1286 97.997 39.3427 98.156 39.5017C98.315 39.6607 98.5291 39.7524 98.7539 39.7578H104.071C104.286 39.7397 104.489 39.6495 104.647 39.5016C104.735 39.4299 104.804 39.3381 104.848 39.234C104.893 39.1299 104.912 39.0167 104.903 38.9037V27.5017C104.908 27.4127 104.946 27.3287 105.009 27.2657C105.072 27.2028 105.156 27.1651 105.245 27.16C105.345 27.1544 105.445 27.175 105.535 27.22C105.625 27.2649 105.702 27.3326 105.757 27.4163L111.672 36.9607C111.744 37.0425 111.833 37.108 111.932 37.1529C112.032 37.1977 112.139 37.2209 112.249 37.2209C112.358 37.2209 112.465 37.1977 112.565 37.1529C112.664 37.108 112.753 37.0425 112.825 36.9607L118.804 27.4163C118.859 27.3326 118.936 27.2649 119.026 27.22C119.116 27.175 119.216 27.1544 119.316 27.16H119.38C119.465 27.1849 119.538 27.2398 119.585 27.3145C119.632 27.3892 119.65 27.4785 119.636 27.5657V38.9037C119.647 39.1316 119.747 39.3461 119.914 39.5016C119.984 39.5862 120.072 39.6534 120.172 39.6978C120.272 39.7423 120.381 39.7629 120.49 39.7578H125.743C125.959 39.7397 126.162 39.6495 126.32 39.5016C126.41 39.4309 126.482 39.3399 126.53 39.236C126.578 39.1321 126.601 39.0182 126.597 38.9037ZM138.405 21.3309V22.8255C138.41 23.0447 138.5 23.2534 138.655 23.4084C138.81 23.5634 139.019 23.6529 139.238 23.6583H148.782C149.005 23.6638 149.217 23.7563 149.372 23.9158C149.528 24.0754 149.615 24.2895 149.615 24.5124V29.3807C149.609 29.5998 149.52 29.8085 149.365 29.9635C149.21 30.1185 149.001 30.208 148.782 30.2134H139.238C139.015 30.219 138.803 30.3114 138.647 30.471C138.492 30.6306 138.405 30.8446 138.405 31.0675V32.4127C138.405 32.6355 138.492 32.8496 138.647 33.0092C138.803 33.1688 139.015 33.2612 139.238 33.2668H150.213C150.436 33.2723 150.647 33.3648 150.803 33.5243C150.958 33.6839 151.046 33.898 151.045 34.1209V38.9678C151.046 39.1907 150.958 39.4047 150.803 39.5643C150.647 39.7239 150.436 39.8163 150.213 39.8219H132.298C132.073 39.8165 131.859 39.7248 131.7 39.5657C131.541 39.4067 131.45 39.1926 131.444 38.9678V14.8398C131.45 14.615 131.541 14.4009 131.7 14.2419C131.859 14.0829 132.073 13.9911 132.298 13.9857H150.213C150.434 13.9964 150.643 14.0905 150.797 14.249C150.952 14.4074 151.04 14.6185 151.045 14.8398V19.644C151.04 19.8632 150.951 20.0719 150.796 20.2269C150.641 20.3819 150.432 20.4714 150.213 20.4768H139.238C139.017 20.4875 138.808 20.5816 138.653 20.7401C138.499 20.8985 138.41 21.1096 138.405 21.3309ZM159.428 38.9346C160.096 38.2544 160.468 37.3375 160.462 36.3842C160.471 35.916 160.383 35.4509 160.206 35.0176C160.052 34.5968 159.804 34.2169 159.48 33.9073C158.775 33.2571 157.855 32.8918 156.896 32.8824C156.428 32.872 155.962 32.9593 155.53 33.1386C155.093 33.3184 154.695 33.5792 154.355 33.9073C154.047 34.2386 153.788 34.6126 153.587 35.0176C153.409 35.4509 153.322 35.916 153.33 36.3842C153.32 36.8615 153.405 37.3361 153.581 37.7799C153.757 38.2238 154.02 38.6277 154.355 38.9678C154.688 39.3093 155.088 39.5782 155.53 39.7578C155.961 39.9429 156.427 40.0304 156.896 40.014C157.849 40.0028 158.76 39.6147 159.428 38.9346ZM168.64 39.7578H163.387C163.274 39.7702 163.159 39.7531 163.055 39.7082C162.95 39.6633 162.858 39.5922 162.789 39.5016C162.637 39.3382 162.546 39.1267 162.533 38.9037V14.9038C162.548 14.6823 162.643 14.4736 162.8 14.3166C162.957 14.1595 163.166 14.0647 163.387 14.0497H168.64C168.861 14.0605 169.07 14.1545 169.224 14.313C169.379 14.4715 169.467 14.6826 169.473 14.9038V38.9037C169.478 39.0156 169.461 39.1276 169.422 39.2325C169.382 39.3374 169.321 39.4329 169.243 39.5132C169.165 39.5934 169.071 39.6566 168.967 39.6987C168.863 39.7408 168.752 39.7609 168.64 39.7578ZM174.405 39.7578H179.658C179.874 39.7584 180.082 39.6773 180.24 39.5307C180.399 39.3842 180.496 39.183 180.512 38.9678V33.3308C180.517 33.1117 180.607 32.903 180.762 32.748C180.917 32.593 181.126 32.5035 181.345 32.4981H182.135C182.384 32.5095 182.629 32.5723 182.853 32.6825C183.077 32.7927 183.276 32.948 183.437 33.1386C183.996 33.9677 184.608 34.7968 185.188 35.5834C185.34 35.7894 185.49 35.9926 185.637 36.192C185.856 36.4912 186.077 36.7986 186.301 37.1098C186.797 37.7981 187.306 38.5049 187.836 39.1813C188.034 39.3619 188.257 39.513 188.498 39.6297C188.735 39.7531 188.999 39.819 189.266 39.8219H195.822C195.92 39.8195 196.015 39.7877 196.095 39.7306C196.175 39.6735 196.236 39.5937 196.27 39.5016C196.355 39.3094 196.27 39.1173 196.142 38.9037C195.373 37.8788 194.476 36.6831 193.494 35.466C192.912 34.7449 192.36 34.0163 191.816 33.2979C191.442 32.8039 191.071 32.3147 190.697 31.8362C190.632 31.7565 190.587 31.663 190.565 31.563C190.543 31.4629 190.544 31.3591 190.569 31.2597C190.641 31.0476 190.775 30.8618 190.953 30.7258C191.514 30.3778 192.018 29.9457 192.448 29.4447C192.907 28.9093 193.301 28.3216 193.622 27.6938C194.307 26.3448 194.659 24.851 194.647 23.338C194.645 22.0527 194.406 20.7789 193.943 19.58C193.541 18.4775 192.899 17.4782 192.064 16.6547C191.231 15.8143 190.236 15.153 189.138 14.7117C187.949 14.2132 186.67 13.966 185.38 13.9857H174.405C174.184 13.9964 173.975 14.0905 173.821 14.249C173.666 14.4074 173.578 14.6185 173.573 14.8398V38.9037C173.586 39.1268 173.676 39.3382 173.829 39.5016C173.898 39.5862 173.987 39.6534 174.087 39.6978C174.187 39.7423 174.296 39.7629 174.405 39.7578ZM185.06 25.943H181.345C181.124 25.9162 180.922 25.8064 180.779 25.6359C180.636 25.4653 180.564 25.2469 180.576 25.0248V21.2668C180.581 21.042 180.673 20.8279 180.832 20.6689C180.991 20.5099 181.205 20.4181 181.43 20.4127H185.124C185.548 20.4285 185.964 20.5379 186.341 20.733C186.683 20.9268 186.975 21.1972 187.195 21.523C187.362 21.8041 187.491 22.1056 187.58 22.4198C187.652 22.6993 187.695 22.9855 187.708 23.2739C187.715 23.6538 187.638 24.0307 187.483 24.3776C187.328 24.7245 187.099 25.033 186.811 25.281C186.562 25.5103 186.272 25.6913 185.957 25.8148C185.663 25.8887 185.363 25.9317 185.06 25.943Z" fill="#3E7D3A"/>
</svg>
